<svg width="34" height="21" viewBox="0 0 34 21" fill="none" xmlns="http://www.w3.org/2000/svg">
<g opacity="0.85">
<path d="M39.2881 6.98143C39.6596 7.08568 40.0109 7.25093 40.3275 7.47033C38.8505 5.33821 32.0126 0.109751 20.73 0.00110802C7.68323 -0.107535 2.25392 7.79626 3.81297 13.5815C3.83942 13.7256 3.88066 13.8667 3.93605 14.0025C29.209 1.78014 39.2881 6.98143 39.2881 6.98143Z" fill="url(#paint0_linear_86_185)"/>
<path d="M24.313 14.7494C34.3921 6.51965 39.9582 7.40238 40.3138 7.47028C39.9972 7.25088 39.6459 7.08563 39.2744 6.98138C39.2744 6.98138 29.209 1.78009 3.94971 14.0568C5.83697 20.2223 12.8937 24.052 24.313 14.7494Z" fill="url(#paint1_linear_86_185)"/>
<path d="M12.4835 3.21964L12.0732 3.51841L11.6355 3.89866L11.362 4.12953L11.0748 4.40114L10.774 4.69991L10.4594 5.03942C10.2406 5.27028 10.0218 5.52831 9.81666 5.78634C9.61152 6.04437 9.39271 6.34314 9.18757 6.6419C8.98244 6.94067 8.98243 6.94067 8.8867 7.09006C8.79097 7.23944 8.68157 7.4024 8.59951 7.55179C8.51746 7.70117 8.23026 8.19007 8.06615 8.50242C7.90204 8.81477 7.75161 9.15428 7.61485 9.45305C7.47809 9.75182 7.34133 10.0777 7.23193 10.3629C7.12252 10.6481 7.02679 10.9469 6.94473 11.2049C6.76694 11.721 6.65754 12.1555 6.57549 12.4679C6.55581 12.5872 6.5284 12.7052 6.49343 12.821V12.9432C6.47892 13.026 6.43187 13.0998 6.36262 13.1482C6.29337 13.1966 6.2076 13.2156 6.12418 13.2012C6.04076 13.1868 5.96652 13.1401 5.91779 13.0713C5.86906 13.0026 5.84983 12.9174 5.86434 12.8346V12.6988C5.86434 12.6037 5.86434 12.4815 5.96007 12.3185C6.0558 12.1555 6.19256 11.558 6.38402 10.9605L6.72592 10.1185C6.849 9.8333 6.99944 9.52095 7.14987 9.2086C7.3003 8.89625 7.47809 8.57032 7.65587 8.25797C7.83366 7.94562 8.0388 7.61969 8.24394 7.30734C8.44907 6.99499 8.44907 6.99499 8.55848 6.83203L8.8867 6.39746C9.10552 6.09869 9.338 5.8135 9.55682 5.55547C9.77563 5.29745 10.0218 5.03942 10.2406 4.80855L10.5825 4.48262L10.9107 4.19743L11.2116 3.9394L11.4851 3.70854L11.9638 3.34187L12.374 3.05668H12.4698C12.4915 3.05488 12.5131 3.06174 12.5298 3.07574C12.5465 3.08975 12.5569 3.10976 12.5587 3.13137C12.5605 3.15298 12.5536 3.17442 12.5395 3.19097C12.5254 3.20753 12.5052 3.21784 12.4835 3.21964Z" fill="url(#paint2_linear_86_185)"/>
<path d="M17.29 3.20865L16.8999 3.43659L16.4837 3.7267L16.2236 3.90284L15.9506 4.11005L15.6645 4.338L15.3654 4.59702C15.1573 4.77316 14.9492 4.97001 14.7542 5.16687C14.5591 5.36373 14.351 5.59167 14.156 5.81961C13.9609 6.04755 13.9609 6.04755 13.8699 6.16152C13.7788 6.27549 13.6748 6.39982 13.5968 6.51379C13.5188 6.62776 13.2457 7.00076 13.0896 7.23906C12.9336 7.47736 12.7905 7.73639 12.6605 7.96433C12.5304 8.19227 12.4004 8.44093 12.2964 8.65851C12.1923 8.87609 12.1013 9.10403 12.0233 9.30089C11.8542 9.69461 11.7502 10.0262 11.6722 10.2645C11.6535 10.3555 11.6274 10.4455 11.5941 10.5338V10.6271C11.5803 10.6903 11.5356 10.7465 11.4698 10.7835C11.4039 10.8204 11.3223 10.8349 11.243 10.8239C11.1637 10.813 11.0931 10.7773 11.0468 10.7248C11.0004 10.6724 10.9822 10.6074 10.9959 10.5442V10.4406C10.9959 10.3681 10.9959 10.2748 11.087 10.1505C11.178 10.0262 11.308 9.57028 11.4901 9.11439L11.8152 8.47202C11.9322 8.25444 12.0753 8.01613 12.2183 7.77783C12.3614 7.53953 12.5304 7.29087 12.6995 7.05256C12.8686 6.81426 13.0636 6.5656 13.2587 6.3273C13.4537 6.08899 13.4537 6.089 13.5578 5.96466L13.8699 5.63311C14.0779 5.40517 14.299 5.1876 14.5071 4.99074C14.7151 4.79388 14.9492 4.59702 15.1573 4.42089L15.4824 4.17222L15.7945 3.95464L16.0806 3.75778L16.3407 3.58165L16.7958 3.3019L17.186 3.08432H17.277C17.2977 3.08295 17.3182 3.08818 17.3341 3.09887C17.3499 3.10955 17.3598 3.12482 17.3615 3.14131C17.3632 3.15779 17.3567 3.17415 17.3433 3.18678C17.3298 3.19941 17.3107 3.20728 17.29 3.20865Z" fill="url(#paint3_linear_86_185)"/>
<path d="M19.1161 7.89129L19.1981 7.80981L19.4443 7.57894L19.8135 7.23943L20.3195 6.80486C20.511 6.65548 20.7025 6.47893 20.9213 6.31597L21.6187 5.78633L22.3846 5.2567L23.1915 4.74064C23.4787 4.57767 23.7522 4.40113 24.0257 4.26533L24.4496 4.03446L24.8599 3.84433L25.2565 3.65421L25.6531 3.49124C25.8894 3.38326 26.1313 3.28806 26.3779 3.20606L26.9797 3.00235L27.472 2.88012L27.8959 2.77148V2.8937L27.4857 3.02951L27.007 3.1789L26.4053 3.40976C26.1728 3.49124 25.954 3.61347 25.6941 3.72211L25.3249 3.89866L24.942 4.11594L24.5454 4.31965L24.1488 4.5641C23.8753 4.71348 23.6154 4.90361 23.3419 5.06657L22.576 5.62337L21.8512 6.18016C21.6324 6.37029 21.3999 6.54684 21.2085 6.72338L20.6341 7.23943C20.4563 7.38882 20.3059 7.55178 20.1691 7.67401L19.8135 8.0271L19.6084 8.25796L19.5263 8.33945C19.497 8.36943 19.4619 8.39326 19.4232 8.40954C19.3844 8.42581 19.3428 8.43419 19.3007 8.43419C19.2586 8.43419 19.2169 8.42581 19.1782 8.40954C19.1394 8.39326 19.1043 8.36943 19.075 8.33945C19.0202 8.27749 18.99 8.19784 18.99 8.11537C18.99 8.0329 19.0202 7.95325 19.075 7.89129H19.1161Z" fill="url(#paint4_linear_86_185)"/>
<path d="M15.0068 8.98217L15.0598 8.88758L15.2216 8.61709L15.4657 8.21799L15.8068 7.70108C15.939 7.52021 16.0655 7.31277 16.2182 7.11365L16.7029 6.46899L17.246 5.81191L17.827 5.16065C18.0382 4.9491 18.2348 4.72676 18.44 4.54426L18.7537 4.24146L19.0643 3.98099L19.3633 3.72301L19.6679 3.49159C19.8471 3.34307 20.0339 3.20601 20.2274 3.081L20.6988 2.77246L21.0938 2.56348L21.4332 2.38021L21.4589 2.49973L21.1369 2.70708L20.7592 2.94014L20.2936 3.27523C20.112 3.39716 19.9507 3.55644 19.7515 3.70989L19.4731 3.94963L19.1916 4.23169L18.8955 4.50296L18.608 4.81407C18.4056 5.00985 18.2236 5.24298 18.0241 5.45204L17.4867 6.13569L16.9844 6.81188C16.8373 7.03756 16.6758 7.25245 16.5493 7.45988L16.1669 8.06889C16.0464 8.24728 15.9521 8.43398 15.861 8.57835L15.6313 8.98825L15.5046 9.25128L15.4516 9.34587C15.4328 9.38052 15.4079 9.4102 15.3782 9.43316C15.3485 9.45611 15.3146 9.47188 15.2787 9.47953C15.2427 9.48717 15.2053 9.48654 15.1688 9.47767C15.1323 9.4688 15.0973 9.45186 15.0659 9.42787C15.0061 9.37725 14.9635 9.30485 14.9461 9.2242C14.9288 9.14355 14.9379 9.06017 14.9717 8.98962L15.0068 8.98217Z" fill="url(#paint5_linear_86_185)"/>
<path d="M31.6159 4.0888H31.2876H30.9184L30.4397 4.1567L29.879 4.29251C29.67 4.34826 29.4645 4.41628 29.2636 4.49621L28.6208 4.74066L27.9644 5.03943C27.1667 5.40772 26.3905 5.82031 25.6395 6.27524C25.325 6.45179 25.0788 6.61476 24.901 6.7234L24.6275 6.89994C24.5548 6.94624 24.4667 6.96223 24.3822 6.94443C24.2977 6.92664 24.2237 6.87649 24.1762 6.80488C24.1534 6.77019 24.1379 6.73136 24.1304 6.69065C24.1229 6.64993 24.1236 6.60814 24.1325 6.56771C24.1414 6.52727 24.1583 6.489 24.1823 6.45511C24.2062 6.42122 24.2367 6.3924 24.2719 6.37031L24.5728 6.20734L25.3523 5.78635C26.0088 5.46042 26.884 5.03943 27.8003 4.68634L28.4841 4.42831L29.1542 4.22461L29.797 4.06164C29.9908 4.0148 30.1872 3.97853 30.385 3.953H30.891C31.0231 3.94617 31.1555 3.94617 31.2876 3.953H31.5338H31.6159V4.0888Z" fill="url(#paint6_linear_86_185)"/>
<path d="M6.37001 12.6445L6.75293 12.984L7.83332 13.8668C8.91961 14.7124 10.072 15.4708 11.2796 16.1347C11.6079 16.3248 11.9361 16.4878 12.2643 16.6507L12.7703 16.8816L13.2626 17.0989C13.5909 17.2211 13.9054 17.3433 14.2199 17.4384L15.0815 17.6829L15.4781 17.7779H15.8474H16.1619H16.4354H16.8047H16.9551V17.9001H16.1619H15.8337H15.4645L15.0542 17.8187C14.7807 17.8187 14.4661 17.6964 14.1516 17.6014C13.837 17.5063 13.5088 17.4112 13.1669 17.289L12.6609 17.0989L12.1412 16.8952C11.7993 16.7322 11.4437 16.5828 11.1019 16.4063C9.85264 15.7752 8.65468 15.0488 7.51878 14.2334C7.0538 13.9075 6.67088 13.6087 6.41104 13.405L6.11017 13.1606L6.00076 13.0791C5.94305 13.0186 5.91089 12.9384 5.91089 12.855C5.91089 12.7717 5.94305 12.6915 6.00076 12.6309C6.02888 12.6013 6.0628 12.5778 6.10042 12.5617C6.13805 12.5455 6.1786 12.5372 6.21957 12.5372C6.26055 12.5372 6.3011 12.5455 6.33872 12.5617C6.37635 12.5778 6.41026 12.6013 6.43839 12.6309L6.37001 12.6445Z" fill="url(#paint7_linear_86_185)"/>
<path d="M10.0351 11.2184L10.4181 11.49C10.6642 11.6665 11.0198 11.911 11.4574 12.1826C12.5199 12.8803 13.6202 13.5196 14.7533 14.0974C15.0542 14.2604 15.3687 14.4098 15.6833 14.5456L16.5996 14.9394C16.9004 15.0616 17.2013 15.1703 17.4748 15.2518L17.8851 15.374L18.2817 15.4826C18.5105 15.5449 18.7436 15.5903 18.9792 15.6184H19.2663H19.9912H19.8681C19.7497 15.6254 19.6309 15.6254 19.5125 15.6184H19.2527H18.9518C18.733 15.6184 18.5005 15.6184 18.2407 15.5098L17.8304 15.4147L17.4064 15.4826C17.1007 15.409 16.7993 15.3183 16.5038 15.211L15.5465 14.8579L14.5892 14.4369C13.4174 13.9069 12.2761 13.3129 11.1702 12.6579L10.0762 11.9925L9.6659 11.7344C9.59972 11.6855 9.55452 11.6136 9.53931 11.5331C9.52411 11.4525 9.54001 11.3693 9.58384 11.2999C9.6013 11.2603 9.62683 11.2248 9.65881 11.1955C9.6908 11.1663 9.72855 11.1439 9.76967 11.1299C9.8108 11.1158 9.8544 11.1104 9.89774 11.114C9.94108 11.1175 9.98321 11.1299 10.0215 11.1505L10.0351 11.2184Z" fill="url(#paint8_linear_86_185)"/>
<path d="M14.6714 9.5073L15.0133 9.77891L15.9569 10.4851C16.3535 10.7703 16.8322 11.0826 17.3245 11.4086L18.1177 11.8975L18.9656 12.3728L19.4032 12.6036L19.8409 12.8073L20.7024 13.174L21.1264 13.3234L21.5367 13.4592H21.7281H21.9196H22.1111H22.2888H22.4666H22.6307H22.9453H23.465C23.5742 13.4672 23.6839 13.4672 23.7932 13.4592H23.9026C23.9222 13.4589 23.9412 13.4656 23.9563 13.4781C23.9713 13.4905 23.9814 13.5079 23.9847 13.5271H23.8752H23.5333H22.8769H22.5624H22.3846H22.2068H22.0153H21.8239H21.6187H21.4136L20.9896 13.4049L20.552 13.2691C20.2511 13.174 19.9503 13.0518 19.6494 12.9296L19.1981 12.7394L18.7742 12.7123L17.8852 12.2777L17.051 11.816C16.504 11.5036 16.0116 11.2049 15.5877 10.9332C15.1637 10.6616 14.8355 10.4308 14.5893 10.2678L14.2201 9.9962C14.1533 9.94736 14.1086 9.87428 14.0958 9.79289C14.083 9.7115 14.1031 9.62838 14.1517 9.56163C14.2141 9.5072 14.2943 9.47717 14.3774 9.47717C14.4604 9.47717 14.5406 9.5072 14.603 9.56163L14.6714 9.5073Z" fill="url(#paint9_linear_86_185)"/>
<path d="M19.5676 7.87769H19.636L19.8274 8.05423C20.0052 8.2172 20.265 8.4209 20.5933 8.66535L21.1403 9.01844C21.3431 9.15608 21.5531 9.28301 21.7694 9.39869L22.4669 9.75178L23.219 10.0505L23.6019 10.1864L23.9849 10.3086C24.2447 10.3086 24.5046 10.4444 24.7507 10.4851L25.4755 10.6073H25.8174H26.7064H27.1303H27.5132V10.6753H27.1303H26.6927H26.1183H25.4482L24.696 10.5938C24.4362 10.5938 24.1627 10.5123 23.8891 10.458L23.4789 10.3493L23.0823 10.2407C22.8129 10.1599 22.5481 10.0647 22.2891 9.95549L21.5095 9.88758C21.2771 9.76536 21.0446 9.65672 20.8394 9.5345L20.2514 9.1814C19.9591 9.00098 19.6761 8.80608 19.4035 8.59745L19.212 8.43448H19.1299C19.0665 8.37865 19.0279 8.30008 19.0228 8.21603C19.0177 8.13198 19.0464 8.04936 19.1026 7.98633C19.1588 7.9233 19.2379 7.88503 19.3226 7.87993C19.4072 7.87484 19.4904 7.90334 19.5539 7.95917L19.5676 7.87769Z" fill="url(#paint10_linear_86_185)"/>
<path d="M24.6685 6.5331L24.9283 6.64174L25.6395 6.92693C26.2275 7.1578 27.0071 7.44299 27.8276 7.7146C28.5575 7.95953 29.3019 8.15909 30.0568 8.31213H30.4807H30.8089H31.0825C31.0885 8.32246 31.0916 8.33417 31.0916 8.34609C31.0916 8.35801 31.0885 8.36971 31.0825 8.38003H30.8089C30.6954 8.39424 30.5806 8.39424 30.4671 8.38003H30.0294C29.2493 8.28516 28.477 8.1354 27.7182 7.93188C26.8977 7.72818 26.0771 7.49731 25.4617 7.30718L24.7232 7.07632L24.4497 6.99483C24.4085 6.98262 24.3703 6.96217 24.3373 6.93471C24.3044 6.90726 24.2775 6.8734 24.2583 6.83522C24.2391 6.79704 24.2279 6.75536 24.2256 6.71274C24.2232 6.67012 24.2297 6.62747 24.2445 6.58742C24.257 6.5481 24.2771 6.51161 24.3038 6.48006C24.3305 6.4485 24.3633 6.4225 24.4001 6.40357C24.437 6.38463 24.4773 6.37313 24.5186 6.36972C24.56 6.36631 24.6016 6.37107 24.6411 6.38372L24.6685 6.5331Z" fill="url(#paint11_linear_86_185)"/>
<path d="M39.2058 7.07642H39.1101L38.7956 6.9542C38.3969 6.81386 37.9905 6.69598 37.5784 6.60111C37.045 6.47889 36.3886 6.37024 35.6228 6.27518C34.8569 6.18012 33.9953 6.13938 33.0517 6.1258H32.3406H31.5884H30.8089H30.0157L29.1951 6.20728L28.3472 6.3974H27.9233L27.4856 6.46531L26.6241 6.58753L25.7488 6.75049L24.8599 6.92704L23.9573 7.11716L23.506 7.21223L23.0547 7.32087L22.1521 7.55174L21.2358 7.78261L20.3332 8.04063L19.4306 8.31224L18.528 8.58385L17.6253 8.88262L16.7364 9.16781L15.8475 9.48016C14.685 9.90115 13.5499 10.3493 12.4422 10.7703L10.8421 11.4493L10.4455 11.6123L10.0626 11.7752L9.31043 12.1148L8.58561 12.4407L7.87447 12.753C7.40949 12.9703 6.97186 13.1876 6.50688 13.3777L5.87779 13.6765L5.28973 13.9753L4.19567 14.5185L3.23835 14.9938L2.41781 15.4148L0.995516 16.2704C0.846807 16.3478 0.67321 16.3634 0.512915 16.3137C0.35262 16.2641 0.218758 16.1532 0.140776 16.0055C0.0627943 15.8579 0.0470828 15.6855 0.0970948 15.5263C0.147107 15.3671 0.258745 15.2342 0.407455 15.1568L1.98018 14.3963L2.80073 13.9888L3.78539 13.5271L4.90681 12.9975L5.50855 12.7259L6.15131 12.4407L7.5189 11.8431L8.24371 11.5308L8.98221 11.2184L9.74806 10.9061L10.1447 10.7431L10.5413 10.5937L12.1824 9.95547C13.3038 9.54806 14.4662 9.11349 15.656 8.73324C15.9569 8.63817 16.2441 8.52953 16.5586 8.44804L17.4065 8.16286L18.3228 7.89125L19.2391 7.63322L20.1554 7.3752L21.0853 7.15791L22.0153 6.92704L22.9316 6.72334L23.3966 6.62827L23.8479 6.54679L24.7641 6.37024C25.065 6.37024 25.3659 6.2616 25.6667 6.22086L26.5557 6.08506L27.4446 5.96283H27.8822H28.3062L29.1541 5.88135H29.9883H30.7952H31.5884H32.3542H33.0791C33.9528 5.9017 34.8249 5.9697 35.6911 6.08506C36.354 6.17676 37.0113 6.3037 37.6605 6.46531C38.0819 6.57517 38.4973 6.70662 38.905 6.85914L39.2332 6.99494H39.3426C39.3641 7.01538 39.3782 7.04221 39.383 7.07136C39.3877 7.10052 39.3827 7.13041 39.3688 7.15652C39.3549 7.18262 39.3328 7.2035 39.3059 7.216C39.2789 7.22851 39.2486 7.23195 39.2195 7.22581L39.2058 7.07642Z" fill="url(#paint12_linear_86_185)"/>
<path style="mix-blend-mode:screen" d="M20.7435 0.00112714C7.83346 -0.107516 2.36312 7.66047 3.73071 13.4865L2.74605 13.9482L1.9255 14.3556L0.339099 15.2248C0.190389 15.3022 0.0787457 15.4351 0.0287337 15.5943C-0.0212783 15.7535 -0.0055616 15.9259 0.0724202 16.0735C0.150402 16.2212 0.284264 16.3321 0.444559 16.3817C0.604854 16.4314 0.778451 16.4158 0.927161 16.3383L2.45885 15.5371L3.2794 15.1161L4.14098 14.6815C6.28809 20.5075 13.2491 23.8347 24.3129 14.8173C34.392 6.58762 39.958 7.47035 40.3136 7.53825C38.864 5.33822 32.026 0.10977 20.7435 0.00112714Z" fill="url(#paint13_radial_86_185)"/>
</g>
<defs>
<linearGradient id="paint0_linear_86_185" x1="15.5924" y1="8.0117" x2="-2.42346" y2="14.788" gradientUnits="userSpaceOnUse">
<stop offset="0.08" stop-color="#B0E355"/>
<stop offset="0.21" stop-color="#ADE152"/>
<stop offset="0.32" stop-color="#A2DA4A"/>
<stop offset="0.42" stop-color="#91CE3B"/>
<stop offset="0.52" stop-color="#79BE27"/>
<stop offset="0.61" stop-color="#5AA90D"/>
<stop offset="0.65" stop-color="#4A9F00"/>
<stop offset="1" stop-color="#346D0A"/>
</linearGradient>
<linearGradient id="paint1_linear_86_185" x1="35.0572" y1="19.9787" x2="-16.2582" y2="24.5664" gradientUnits="userSpaceOnUse">
<stop offset="0.08" stop-color="#B0E355"/>
<stop offset="0.21" stop-color="#ADE152"/>
<stop offset="0.32" stop-color="#A2DA4A"/>
<stop offset="0.42" stop-color="#91CE3B"/>
<stop offset="0.52" stop-color="#79BE27"/>
<stop offset="0.61" stop-color="#5AA90D"/>
<stop offset="0.65" stop-color="#4A9F00"/>
<stop offset="1" stop-color="#346D0A"/>
</linearGradient>
<linearGradient id="paint2_linear_86_185" x1="28.7264" y1="21.0639" x2="-4.70887" y2="24.9361" gradientUnits="userSpaceOnUse">
<stop offset="0.08" stop-color="#B0E355"/>
<stop offset="0.21" stop-color="#ADE152"/>
<stop offset="0.32" stop-color="#A2DA4A"/>
<stop offset="0.42" stop-color="#91CE3B"/>
<stop offset="0.52" stop-color="#79BE27"/>
<stop offset="0.61" stop-color="#5AA90D"/>
<stop offset="0.65" stop-color="#4A9F00"/>
<stop offset="1" stop-color="#346D0A"/>
</linearGradient>
<linearGradient id="paint3_linear_86_185" x1="32.7352" y1="16.8226" x2="1.17317" y2="21.3784" gradientUnits="userSpaceOnUse">
<stop offset="0.08" stop-color="#B0E355"/>
<stop offset="0.21" stop-color="#ADE152"/>
<stop offset="0.32" stop-color="#A2DA4A"/>
<stop offset="0.42" stop-color="#91CE3B"/>
<stop offset="0.52" stop-color="#79BE27"/>
<stop offset="0.61" stop-color="#5AA90D"/>
<stop offset="0.65" stop-color="#4A9F00"/>
<stop offset="1" stop-color="#346D0A"/>
</linearGradient>
<linearGradient id="paint4_linear_86_185" x1="31.1642" y1="-5.01129" x2="11.4314" y2="10.2348" gradientUnits="userSpaceOnUse">
<stop offset="0.08" stop-color="#B0E355"/>
<stop offset="0.21" stop-color="#ADE152"/>
<stop offset="0.32" stop-color="#A2DA4A"/>
<stop offset="0.42" stop-color="#91CE3B"/>
<stop offset="0.52" stop-color="#79BE27"/>
<stop offset="0.61" stop-color="#5AA90D"/>
<stop offset="0.65" stop-color="#4A9F00"/>
<stop offset="1" stop-color="#346D0A"/>
</linearGradient>
<linearGradient id="paint5_linear_86_185" x1="22.5899" y1="-5.8244" x2="6.78415" y2="10.6031" gradientUnits="userSpaceOnUse">
<stop offset="0.08" stop-color="#B0E355"/>
<stop offset="0.21" stop-color="#ADE152"/>
<stop offset="0.32" stop-color="#A2DA4A"/>
<stop offset="0.42" stop-color="#91CE3B"/>
<stop offset="0.52" stop-color="#79BE27"/>
<stop offset="0.61" stop-color="#5AA90D"/>
<stop offset="0.65" stop-color="#4A9F00"/>
<stop offset="1" stop-color="#346D0A"/>
</linearGradient>
<linearGradient id="paint6_linear_86_185" x1="41.0737" y1="-6.77116" x2="10.7074" y2="8.15347" gradientUnits="userSpaceOnUse">
<stop offset="0.08" stop-color="#B0E355"/>
<stop offset="0.21" stop-color="#ADE152"/>
<stop offset="0.32" stop-color="#A2DA4A"/>
<stop offset="0.42" stop-color="#91CE3B"/>
<stop offset="0.52" stop-color="#79BE27"/>
<stop offset="0.61" stop-color="#5AA90D"/>
<stop offset="0.65" stop-color="#4A9F00"/>
<stop offset="1" stop-color="#346D0A"/>
</linearGradient>
<linearGradient id="paint7_linear_86_185" x1="29.5634" y1="28.3751" x2="-3.86336" y2="32.2451" gradientUnits="userSpaceOnUse">
<stop offset="0.08" stop-color="#B0E355"/>
<stop offset="0.21" stop-color="#ADE152"/>
<stop offset="0.32" stop-color="#A2DA4A"/>
<stop offset="0.42" stop-color="#91CE3B"/>
<stop offset="0.52" stop-color="#79BE27"/>
<stop offset="0.61" stop-color="#5AA90D"/>
<stop offset="0.65" stop-color="#4A9F00"/>
<stop offset="1" stop-color="#346D0A"/>
</linearGradient>
<linearGradient id="paint8_linear_86_185" x1="29.4052" y1="26.9831" x2="-4.93368" y2="24.8956" gradientUnits="userSpaceOnUse">
<stop offset="0.08" stop-color="#B0E355"/>
<stop offset="0.21" stop-color="#ADE152"/>
<stop offset="0.32" stop-color="#A2DA4A"/>
<stop offset="0.42" stop-color="#91CE3B"/>
<stop offset="0.52" stop-color="#79BE27"/>
<stop offset="0.61" stop-color="#5AA90D"/>
<stop offset="0.65" stop-color="#4A9F00"/>
<stop offset="1" stop-color="#346D0A"/>
</linearGradient>
<linearGradient id="paint9_linear_86_185" x1="29.2531" y1="25.684" x2="-0.657933" y2="15.6672" gradientUnits="userSpaceOnUse">
<stop offset="0.08" stop-color="#B0E355"/>
<stop offset="0.21" stop-color="#ADE152"/>
<stop offset="0.32" stop-color="#A2DA4A"/>
<stop offset="0.42" stop-color="#91CE3B"/>
<stop offset="0.52" stop-color="#79BE27"/>
<stop offset="0.61" stop-color="#5AA90D"/>
<stop offset="0.65" stop-color="#4A9F00"/>
<stop offset="1" stop-color="#346D0A"/>
</linearGradient>
<linearGradient id="paint10_linear_86_185" x1="29.0441" y1="23.8697" x2="7.46938" y2="17.4582" gradientUnits="userSpaceOnUse">
<stop offset="0.08" stop-color="#B0E355"/>
<stop offset="0.21" stop-color="#ADE152"/>
<stop offset="0.32" stop-color="#A2DA4A"/>
<stop offset="0.42" stop-color="#91CE3B"/>
<stop offset="0.52" stop-color="#79BE27"/>
<stop offset="0.61" stop-color="#5AA90D"/>
<stop offset="0.65" stop-color="#4A9F00"/>
<stop offset="1" stop-color="#346D0A"/>
</linearGradient>
<linearGradient id="paint11_linear_86_185" x1="34.7034" y1="20.3307" x2="13.4808" y2="15.0038" gradientUnits="userSpaceOnUse">
<stop offset="0.08" stop-color="#B0E355"/>
<stop offset="0.21" stop-color="#ADE152"/>
<stop offset="0.32" stop-color="#A2DA4A"/>
<stop offset="0.42" stop-color="#91CE3B"/>
<stop offset="0.52" stop-color="#79BE27"/>
<stop offset="0.61" stop-color="#5AA90D"/>
<stop offset="0.65" stop-color="#4A9F00"/>
<stop offset="1" stop-color="#346D0A"/>
</linearGradient>
<linearGradient id="paint12_linear_86_185" x1="56.9994" y1="3.78807" x2="0.408776" y2="16.6116" gradientUnits="userSpaceOnUse">
<stop offset="0.08" stop-color="#B0E355"/>
<stop offset="0.21" stop-color="#ADE152"/>
<stop offset="0.32" stop-color="#A2DA4A"/>
<stop offset="0.42" stop-color="#91CE3B"/>
<stop offset="0.52" stop-color="#79BE27"/>
<stop offset="0.61" stop-color="#5AA90D"/>
<stop offset="0.65" stop-color="#4A9F00"/>
<stop offset="1" stop-color="#346D0A"/>
</linearGradient>
<radialGradient id="paint13_radial_86_185" cx="0" cy="0" r="1" gradientUnits="userSpaceOnUse" gradientTransform="translate(-38.5555 18.2189) rotate(-8.01777) scale(83.2744 82.7565)">
<stop offset="0.0390761" stop-color="#00533A"/>
<stop offset="0.556673" stop-color="#08475D"/>
<stop offset="0.666519" stop-color="#1E5161"/>
<stop offset="0.766969" stop-color="#416166"/>
<stop offset="0.846972" stop-color="#6E786E"/>
<stop offset="0.912899" stop-color="#AFB078"/>
<stop offset="0.997941" stop-color="#D3C07E"/>
</radialGradient>
</defs>
</svg>
