<svg width="34" height="28" viewBox="0 0 34 28" fill="none" xmlns="http://www.w3.org/2000/svg">
<path fill-rule="evenodd" clip-rule="evenodd" d="M1.21016 11.1837C0.086757 15.1513 -0.170191 19.3093 0.0972141 23.3924C-0.0237906 24.6904 0.688793 25.9437 1.63592 26.8379C3.02224 28.1388 5.75306 27.9614 7.54573 27.7782C10.8099 27.4696 12.2619 24.5187 12.4531 21.6761C12.5995 16.7623 12.6354 11.5991 12.6249 6.6767C12.6227 6.53652 12.623 6.38938 12.6233 6.23813C12.6246 5.58949 12.6261 4.86519 12.4263 4.28978C11.9407 2.68311 10.4304 2.10621 8.91263 2.41485C8.60592 2.51122 8.31051 2.63836 8.03124 2.79416C7.11977 3.28348 6.26793 3.86981 5.49163 4.54217C3.93966 5.8647 2.70537 7.49833 1.87494 9.32899C1.79291 9.49475 1.70966 9.72106 1.63258 9.9306C1.58894 10.0492 1.54728 10.1625 1.50894 10.2564C1.42956 10.4506 1.34851 10.7225 1.27769 10.96C1.25387 11.0399 1.23121 11.1159 1.21016 11.1837ZM0.0972141 23.3924C0.570776 19.2372 1.23705 15.0994 2.75334 11.188C3.57598 9.12757 4.94535 7.31214 6.72409 5.92384C6.88712 5.78808 7.12893 5.61228 7.32604 5.46898C7.36554 5.44026 7.40325 5.41285 7.43817 5.38733C7.43817 5.38733 8.66017 4.35468 9.32196 4.29843C9.98375 4.24218 10.3468 4.28833 10.4962 4.99792L10.5425 5.33685L10.5529 5.71183C10.5425 7.41224 10.535 10.5549 10.5529 12.2856C10.5753 14.7821 10.6052 17.2787 10.665 19.7738L10.7053 21.5939C10.6986 22.161 10.6315 22.726 10.5051 23.2799C10.2183 24.5909 9.48927 25.8673 8.16718 26.3836C7.31567 26.685 6.39095 26.8033 5.49462 26.9071C4.44442 26.9965 3.34492 27.0499 2.37539 26.6288C1.19074 25.9451 0.234652 24.761 0.0972141 23.3924Z" fill="#78C081"/>
<path d="M26.6881 12.2789C27.262 13.6863 28.3076 15.8863 28.6689 18.5295C28.4099 13.6995 28.0728 13.6863 27.906 12.9458C27.6389 11.7603 27.2816 10.5956 26.837 9.46103C25.5629 6.53608 23.2794 4.12869 20.3756 2.64891C20.1285 2.51542 19.86 2.42272 19.5814 2.37463C19.4216 2.36597 19.3291 2.33999 19.1066 2.33999C17.5913 2.25626 16.4447 3.21622 16.1834 4.62513C16.0461 5.23575 16.0834 5.98496 16.0834 6.58692C16.0655 9.85367 16.058 13.9072 16.1133 17.1927C16.1357 18.3735 16.1506 19.5543 16.1834 20.7352C16.1783 21.3728 16.2282 22.0097 16.3327 22.6392C16.8329 25.4989 18.502 27.709 21.6909 27.836C23.2764 27.9472 24.9679 28.0121 26.4429 27.3163C27.5999 26.697 28.071 25.6507 28.4099 24.4959C28.6315 23.7408 28.9317 22.9682 30.1926 21.7339C28.9317 22.4745 28.5143 22.8471 27.6707 24.9431C26.5406 26.8081 25.7293 27.0363 23.6183 26.9078C23.0299 26.8638 22.4447 26.7866 21.8656 26.6768C21.34 26.5743 20.7653 26.4762 20.295 26.2293C18.8454 25.5119 18.2467 23.9009 18.078 22.4054C18.0198 21.8635 18.0064 21.3181 18.0377 20.7741C18.0884 18.7185 18.1482 15.7693 18.1482 13.6863C18.1482 11.6033 18.1795 8.6281 18.1482 6.57537C18.1541 5.96763 18.0213 5.03799 18.3422 4.52408C18.5692 4.15453 18.9399 4.0396 19.553 4.32343C22.145 5.54607 24.2628 7.54068 25.5949 10.0139C25.983 10.7885 26.4398 11.6701 26.6881 12.2789Z" fill="#78C081"/>
<path d="M14.4751 5.8129C14.5805 5.60192 14.4931 5.34635 14.28 5.24206C14.0668 5.13777 13.8087 5.22425 13.7034 5.43523L11.6698 9.50867C11.5645 9.71965 11.6518 9.97522 11.865 10.0795C12.0781 10.1838 12.3362 10.0973 12.4416 9.88634L14.4751 5.8129Z" fill="#78C081"/>
<path d="M13.9652 5.8129C13.8599 5.60192 13.9473 5.34635 14.1604 5.24206C14.3735 5.13777 14.6317 5.22425 14.737 5.43523L16.7706 9.50867C16.8759 9.71965 16.7885 9.97522 16.5754 10.0795C16.3623 10.1838 16.1041 10.0973 15.9988 9.88634L13.9652 5.8129Z" fill="#78C081"/>
<path d="M13.7745 0.426086C13.7745 0.190765 13.9672 0 14.205 0C14.4427 0 14.6354 0.190766 14.6354 0.426087V5.82445C14.6354 6.05977 14.4427 6.25054 14.205 6.25054C13.9672 6.25054 13.7745 6.05977 13.7745 5.82445V0.426086Z" fill="#78C081"/>
<path d="M27.0758 26.1998C26.9443 25.946 26.8113 25.7119 26.6756 25.4779C26.54 25.244 26.4018 25.0133 26.257 24.782C26.1121 24.5507 25.9599 24.3301 25.8118 24.1104C25.7732 24.053 25.7297 24.001 25.6886 23.9458C25.6475 23.8906 25.6027 23.8387 25.5576 23.7848C25.5126 23.7309 25.4638 23.6803 25.4133 23.6247C25.3894 23.5978 25.3631 23.5722 25.3347 23.5481C25.3075 23.522 25.2791 23.4959 25.2531 23.4676C25.428 23.5029 25.5921 23.5625 25.7376 23.6435C25.8112 23.6828 25.8811 23.726 25.9469 23.7727C26.014 23.8184 26.0776 23.8671 26.1372 23.9186C26.3735 24.1215 26.5709 24.3498 26.7236 24.5968C26.8777 24.8414 26.9916 25.1008 27.0627 25.3689C27.1416 25.6404 27.1461 25.9233 27.0758 26.1998Z" fill="#78C081"/>
<path d="M26.95 23.4569C26.8291 23.1693 26.631 22.9164 26.3744 22.7219C26.1279 22.5323 25.8463 22.3858 25.5429 22.2892C25.237 22.1951 24.9206 22.1316 24.5991 22.1C24.2742 22.0637 23.9407 22.0466 23.6031 22.0301L23.8846 21.7515C23.9389 22.158 24.0026 22.562 24.0473 22.9697C24.0745 23.173 24.0936 23.3785 24.1271 23.5667C24.14 23.6633 24.1606 23.7549 24.1851 23.8448C24.2106 23.9349 24.2428 24.0231 24.2816 24.1087C24.4397 24.4572 24.6925 24.7603 25.0156 24.9885C25.3543 25.2312 25.7545 25.3899 26.1794 25.45C25.7208 25.5029 25.2583 25.4201 24.8578 25.2133C24.4395 25.0029 24.0982 24.6824 23.876 24.2911C23.8207 24.1908 23.7734 24.0869 23.7342 23.9801C23.6965 23.8758 23.6665 23.7692 23.6443 23.661C23.5956 23.4425 23.5686 23.2405 23.5367 23.043C23.4723 22.634 23.4182 22.2288 23.3639 21.8223L23.3235 21.52L23.6467 21.5436C23.9937 21.5675 24.3388 21.6086 24.6804 21.6667C25.0321 21.7241 25.3732 21.825 25.6947 21.9669C26.0204 22.111 26.3084 22.3182 26.5399 22.5748C26.7703 22.8218 26.9133 23.1295 26.95 23.4569Z" fill="#78C081"/>
<path d="M27.5378 23.299C27.4262 23.1175 27.3479 22.9147 27.3082 22.7041C27.2679 22.4908 27.2546 22.2748 27.2688 22.0629C27.3058 21.6394 27.4102 21.2337 27.577 20.865C27.7405 20.4892 27.9545 20.1478 28.212 19.8518C28.347 19.6997 28.4983 19.5671 28.663 19.4564C28.8261 19.3507 28.9981 19.2613 29.177 19.1892C29.3523 19.1136 29.5304 19.0572 29.706 19.0037C29.8816 18.9501 30.0544 18.9035 30.2302 18.8559C30.5785 18.7659 30.9183 18.6766 31.2392 18.5613C31.5487 18.4561 31.8397 18.3011 32.1036 18.1007C32.3817 17.8931 32.606 17.6093 32.7583 17.2722C32.8725 16.9912 32.9677 16.6944 33.0727 16.4064C33.0435 16.4904 33.1398 16.7869 33.1561 16.8882C33.2439 17.4294 33.2818 17.9742 33.2689 18.5136C33.265 18.868 33.2393 19.2194 33.192 19.5652L33.1707 19.699L33.0963 20.0796C33.0615 20.246 33.0237 20.4134 32.9774 20.5815C32.8821 20.9239 32.7388 21.2424 32.5526 21.5258C32.4597 21.6648 32.3574 21.7952 32.2466 21.916C32.1336 22.0335 32.0207 22.141 31.9044 22.2435C31.6716 22.4491 31.4238 22.6333 31.1632 22.7945C30.6454 23.116 30.0789 23.3398 29.4838 23.4579C30.0194 23.2132 30.5222 22.8964 30.9823 22.5137C31.2086 22.3262 31.4229 22.1215 31.6237 21.9009C31.822 21.6908 31.9983 21.4556 32.1494 21.1992C32.2875 20.9442 32.3877 20.6628 32.4467 20.3651C32.4794 20.2135 32.5072 20.0574 32.5317 19.8965L32.567 19.6534L32.5851 19.5308L32.5994 19.4174C32.6293 19.098 32.6424 18.7752 32.6387 18.4506C32.6384 18.1206 32.8282 18.4388 32.5072 18.6949C32.1926 18.9379 31.8421 19.1207 31.4678 19.237C31.1097 19.3545 30.7498 19.4302 30.4005 19.5065C30.0511 19.5828 29.7016 19.6532 29.3817 19.756C29.2245 19.8046 29.0724 19.8686 28.9272 19.9474C28.7839 20.0261 28.6507 20.1238 28.5298 20.2387C28.2749 20.477 28.0539 20.7573 27.8732 21.0718C27.6835 21.3849 27.5437 21.7361 27.4592 22.1112C27.3658 22.4932 27.3935 22.912 27.5378 23.299Z" fill="#78C081"/>
</svg>
